<?xml version="1.0" standalone="no"?>
<!DOCTYPE svg PUBLIC "-//W3C//DTD SVG 20010904//EN"
 "http://www.w3.org/TR/2001/REC-SVG-20010904/DTD/svg10.dtd">
<svg version="1.0" xmlns="http://www.w3.org/2000/svg"
 width="512.000000pt" height="512.000000pt" viewBox="0 0 512.000000 512.000000"
 preserveAspectRatio="xMidYMid meet">
<metadata>
Created by potrace 1.14, written by Peter Selinger 2001-2017
</metadata>
<g transform="translate(0.000000,512.000000) scale(0.100000,-0.100000)"
fill="#000000" stroke="none">
<path d="M2125 5106 c-41 -18 -85 -71 -87 -104 0 -15 -2 -90 -4 -167 -1 -77
-3 -145 -3 -152 -1 -6 -27 -19 -58 -29 -32 -10 -60 -18 -63 -19 -3 -1 -14 -5
-25 -10 -11 -4 -42 -17 -70 -27 -27 -11 -92 -40 -144 -65 l-93 -46 -112 113
c-123 125 -156 145 -225 135 -44 -6 -58 -18 -340 -298 -161 -161 -299 -306
-307 -323 -18 -43 -10 -108 20 -147 14 -17 68 -74 121 -126 52 -52 95 -97 95
-102 0 -4 -15 -36 -33 -71 -39 -76 -98 -218 -128 -310 l-21 -67 -173 -3 c-190
-3 -201 -6 -249 -72 -20 -27 -21 -39 -21 -454 0 -478 -3 -457 73 -504 33 -20
48 -22 201 -23 l166 0 41 -117 c23 -64 64 -164 93 -222 28 -58 51 -109 51
-113 0 -4 -50 -58 -111 -118 -61 -61 -116 -121 -121 -135 -18 -42 -17 -88 3
-127 11 -22 141 -160 301 -319 301 -299 317 -312 390 -294 54 13 59 16 176
134 l112 113 108 -53 c59 -29 110 -54 113 -54 13 0 1 327 -15 411 -38 202
-124 380 -268 552 -93 112 -166 234 -218 367 -28 71 -67 204 -74 255 -4 23 -9
52 -11 65 -3 14 -7 77 -9 140 -14 424 163 814 495 1090 238 198 523 302 834
304 257 2 393 -27 611 -129 385 -180 668 -549 750 -980 20 -108 24 -349 6
-445 -7 -36 -14 -78 -17 -95 -12 -66 -70 -225 -115 -315 -48 -95 -92 -160
-215 -320 -36 -47 -90 -134 -120 -195 -58 -118 -90 -220 -111 -350 -9 -52 -13
-355 -5 -355 3 1 54 24 113 53 l108 53 102 -103 c57 -57 118 -112 136 -124 43
-28 110 -28 153 -1 56 35 577 565 593 603 17 40 13 101 -9 132 -8 12 -63 70
-122 129 l-106 107 57 122 c32 66 73 169 93 227 l35 107 167 0 c155 1 170 3
203 23 76 47 73 26 73 504 0 415 -1 427 -21 454 -48 66 -59 69 -249 72 -182 4
-179 3 -186 47 -8 49 -103 275 -150 356 l-27 46 118 119 c91 93 120 129 129
159 14 55 0 110 -41 152 -214 221 -555 551 -580 561 -21 9 -48 11 -77 7 -41
-6 -57 -18 -168 -127 -67 -66 -126 -118 -130 -116 -4 1 -48 23 -98 47 -96 46
-238 103 -304 121 -23 6 -41 14 -42 18 0 4 -1 82 -2 174 -2 182 -6 194 -71
242 -27 20 -41 21 -444 23 -331 2 -423 0 -447 -11z"/>
<path d="M2392 3805 c-283 -52 -523 -202 -687 -430 -144 -201 -202 -389 -199
-641 4 -243 92 -470 259 -669 144 -170 254 -390 304 -610 25 -107 33 -176 37
-320 1 -66 3 -123 3 -127 1 -3 204 -6 452 -5 l452 2 2 125 c3 148 9 206 36
320 54 234 150 423 328 645 157 196 242 444 236 690 -3 116 -12 171 -42 275
-85 296 -307 547 -595 671 -50 22 -121 47 -157 55 -36 9 -75 18 -86 21 -49 12
-275 11 -343 -2z m-372 -912 c40 -27 59 -53 71 -95 13 -50 4 -90 -28 -129 -70
-83 -197 -70 -243 26 -26 54 -25 104 3 146 42 63 142 90 197 52z m618 -5 c37
-23 71 -85 72 -130 0 -62 -46 -120 -112 -140 -108 -32 -213 80 -179 192 10 35
53 78 91 93 34 13 94 6 128 -15z m596 8 c50 -21 81 -71 81 -132 0 -28 -6 -63
-14 -78 -35 -65 -150 -93 -207 -50 -73 54 -92 127 -51 197 41 70 116 95 191
63z"/>
<path d="M2108 688 c-2 -7 -3 -80 -2 -163 3 -120 7 -162 24 -209 69 -201 244
-321 454 -312 168 7 316 108 388 264 33 72 41 129 42 302 l0 125 -451 3 c-355
2 -452 0 -455 -10z"/>
</g>
</svg>
